{
	"asset":{
		"generator":"Khronos glTF Blender I/O v4.0.44",
		"version":"2.0"
	},
	"scene":0,
	"scenes":[
		{
			"name":"Scene",
			"nodes":[
				0
			]
		}
	],
	"nodes":[
		{
			"mesh":0,
			"name":"Donut2.001",
			"rotation":[
				0,
				0.4229108691215515,
				0,
				0.9061713814735413
			],
			"scale":[
				12.12867259979248,
				12.128671646118164,
				12.12867259979248
			]
		}
	],
	"materials":[
		{
			"doubleSided":true,
			"name":"Material.004",
			"pbrMetallicRoughness":{
				"baseColorFactor":[
					0.24680158495903015,
					0.10083764791488647,
					0.0544661208987236,
					1
				],
				"metallicFactor":0,
				"roughnessFactor":0.5
			}
		},
		{
			"doubleSided":true,
			"name":"Material.003",
			"pbrMetallicRoughness":{
				"baseColorFactor":[
					0.8001648187637329,
					0.6873608231544495,
					0.665968656539917,
					1
				],
				"metallicFactor":0,
				"roughnessFactor":0.5
			}
		}
	],
	"meshes":[
		{
			"name":"Torus.009",
			"primitives":[
				{
					"attributes":{
						"POSITION":0,
						"NORMAL":1,
						"TEXCOORD_0":2
					},
					"indices":3,
					"material":0
				},
				{
					"attributes":{
						"POSITION":4,
						"NORMAL":5,
						"TEXCOORD_0":6
					},
					"indices":7,
					"material":1
				}
			]
		}
	],
	"accessors":[
		{
			"bufferView":0,
			"componentType":5126,
			"count":20127,
			"max":[
				0.07620049268007278,
				0.019240491092205048,
				0.0817822813987732
			],
			"min":[
				-0.09416136890649796,
				-0.04783802852034569,
				-0.08886313438415527
			],
			"type":"VEC3"
		},
		{
			"bufferView":1,
			"componentType":5126,
			"count":20127,
			"type":"VEC3"
		},
		{
			"bufferView":2,
			"componentType":5126,
			"count":20127,
			"type":"VEC2"
		},
		{
			"bufferView":3,
			"componentType":5123,
			"count":34260,
			"type":"SCALAR"
		},
		{
			"bufferView":4,
			"componentType":5126,
			"count":5914,
			"max":[
				0.07631497085094452,
				0.016660446301102638,
				0.08074077218770981
			],
			"min":[
				-0.09281940758228302,
				-0.04416918754577637,
				-0.08707922697067261
			],
			"type":"VEC3"
		},
		{
			"bufferView":5,
			"componentType":5126,
			"count":5914,
			"type":"VEC3"
		},
		{
			"bufferView":6,
			"componentType":5126,
			"count":5914,
			"type":"VEC2"
		},
		{
			"bufferView":7,
			"componentType":5123,
			"count":5916,
			"type":"SCALAR"
		}
	],
	"bufferViews":[
		{
			"buffer":0,
			"byteLength":241524,
			"byteOffset":0,
			"target":34962
		},
		{
			"buffer":0,
			"byteLength":241524,
			"byteOffset":241524,
			"target":34962
		},
		{
			"buffer":0,
			"byteLength":161016,
			"byteOffset":483048,
			"target":34962
		},
		{
			"buffer":0,
			"byteLength":68520,
			"byteOffset":644064,
			"target":34963
		},
		{
			"buffer":0,
			"byteLength":70968,
			"byteOffset":712584,
			"target":34962
		},
		{
			"buffer":0,
			"byteLength":70968,
			"byteOffset":783552,
			"target":34962
		},
		{
			"buffer":0,
			"byteLength":47312,
			"byteOffset":854520,
			"target":34962
		},
		{
			"buffer":0,
			"byteLength":11832,
			"byteOffset":901832,
			"target":34963
		}
	],
	"buffers":[
		{
			"byteLength":913664,
			"uri":"scene.bin"
		}
	]
}
