{
	"asset":{
		"generator":"Khronos glTF Blender I/O v4.0.44",
		"version":"2.0"
	},
	"scene":0,
	"scenes":[
		{
			"name":"Scene",
			"nodes":[
				0
			]
		}
	],
	"nodes":[
		{
			"mesh":0,
			"name":"Model",
			"scale":[
				12.282021522521973,
				12.282021522521973,
				12.282021522521973
			]
		}
	],
	"materials":[
		{
			"doubleSided":true,
			"name":"Material.001",
			"pbrMetallicRoughness":{
				"baseColorFactor":[
					0.7328792810440063,
					0.036710236221551895,
					0.8001416921615601,
					1
				],
				"metallicFactor":0,
				"roughnessFactor":0.29816514253616333
			}
		},
		{
			"doubleSided":true,
			"name":"Material.009",
			"pbrMetallicRoughness":{
				"baseColorFactor":[
					0.5977050065994263,
					0.3343702256679535,
					0.093010812997818,
					1
				],
				"metallicFactor":0,
				"roughnessFactor":0.5
			}
		}
	],
	"meshes":[
		{
			"name":"Torus.005",
			"primitives":[
				{
					"attributes":{
						"POSITION":0,
						"NORMAL":1,
						"TEXCOORD_0":2
					},
					"indices":3,
					"material":0
				},
				{
					"attributes":{
						"POSITION":4,
						"NORMAL":5,
						"TEXCOORD_0":6
					},
					"indices":7,
					"material":1
				}
			]
		}
	],
	"accessors":[
		{
			"bufferView":0,
			"componentType":5126,
			"count":1150,
			"max":[
				0.0873054713010788,
				0.019116446375846863,
				0.0809485912322998
			],
			"min":[
				-0.08335315436124802,
				-0.04082438722252846,
				-0.08265051245689392
			],
			"type":"VEC3"
		},
		{
			"bufferView":1,
			"componentType":5126,
			"count":1150,
			"type":"VEC3"
		},
		{
			"bufferView":2,
			"componentType":5126,
			"count":1150,
			"type":"VEC2"
		},
		{
			"bufferView":3,
			"componentType":5123,
			"count":6684,
			"type":"SCALAR"
		},
		{
			"bufferView":4,
			"componentType":5126,
			"count":391,
			"max":[
				0.08567184209823608,
				0.016783926635980606,
				0.07788744568824768
			],
			"min":[
				-0.08054070919752121,
				-0.04068348929286003,
				-0.0791967511177063
			],
			"type":"VEC3"
		},
		{
			"bufferView":5,
			"componentType":5126,
			"count":391,
			"type":"VEC3"
		},
		{
			"bufferView":6,
			"componentType":5126,
			"count":391,
			"type":"VEC2"
		},
		{
			"bufferView":7,
			"componentType":5123,
			"count":2106,
			"type":"SCALAR"
		}
	],
	"bufferViews":[
		{
			"buffer":0,
			"byteLength":13800,
			"byteOffset":0,
			"target":34962
		},
		{
			"buffer":0,
			"byteLength":13800,
			"byteOffset":13800,
			"target":34962
		},
		{
			"buffer":0,
			"byteLength":9200,
			"byteOffset":27600,
			"target":34962
		},
		{
			"buffer":0,
			"byteLength":13368,
			"byteOffset":36800,
			"target":34963
		},
		{
			"buffer":0,
			"byteLength":4692,
			"byteOffset":50168,
			"target":34962
		},
		{
			"buffer":0,
			"byteLength":4692,
			"byteOffset":54860,
			"target":34962
		},
		{
			"buffer":0,
			"byteLength":3128,
			"byteOffset":59552,
			"target":34962
		},
		{
			"buffer":0,
			"byteLength":4212,
			"byteOffset":62680,
			"target":34963
		}
	],
	"buffers":[
		{
			"byteLength":66892,
			"uri":"scene.bin"
		}
	]
}
