{
	"asset":{
		"generator":"Khronos glTF Blender I/O v4.0.44",
		"version":"2.0"
	},
	"scene":0,
	"scenes":[
		{
			"name":"Scene",
			"nodes":[
				0
			]
		}
	],
	"nodes":[
		{
			"mesh":0,
			"name":"Model.001",
			"rotation":[
				0.32926368713378906,
				0.44652411341667175,
				0.1670457124710083,
				0.8150444030761719
			],
			"scale":[
				12.231593132019043,
				12.231592178344727,
				12.231593132019043
			]
		}
	],
	"materials":[
		{
			"doubleSided":true,
			"name":"Sprinkles",
			"pbrMetallicRoughness":{}
		},
		{
			"doubleSided":true,
			"name":"Material.009",
			"pbrMetallicRoughness":{
				"baseColorFactor":[
					0.5977050065994263,
					0.3343702256679535,
					0.093010812997818,
					1
				],
				"metallicFactor":0,
				"roughnessFactor":0.5
			}
		},
		{
			"doubleSided":true,
			"name":"Material.001",
			"pbrMetallicRoughness":{
				"baseColorFactor":[
					0.7328792810440063,
					0.036710236221551895,
					0.8001416921615601,
					1
				],
				"metallicFactor":0,
				"roughnessFactor":0.29816514253616333
			}
		}
	],
	"meshes":[
		{
			"name":"Cylinder.001",
			"primitives":[
				{
					"attributes":{
						"POSITION":0,
						"NORMAL":1,
						"TEXCOORD_0":2
					},
					"indices":3,
					"material":0
				},
				{
					"attributes":{
						"POSITION":4,
						"NORMAL":5,
						"TEXCOORD_0":6
					},
					"indices":7,
					"material":1
				},
				{
					"attributes":{
						"POSITION":8,
						"NORMAL":9,
						"TEXCOORD_0":10
					},
					"indices":11,
					"material":2
				}
			]
		}
	],
	"accessors":[
		{
			"bufferView":0,
			"componentType":5126,
			"count":50925,
			"max":[
				0.06620243936777115,
				0.05686427652835846,
				0.08123530447483063
			],
			"min":[
				-0.08328668028116226,
				-0.051506802439689636,
				-0.07348707318305969
			],
			"type":"VEC3"
		},
		{
			"bufferView":1,
			"componentType":5126,
			"count":50925,
			"type":"VEC3"
		},
		{
			"bufferView":2,
			"componentType":5126,
			"count":50925,
			"type":"VEC2"
		},
		{
			"bufferView":3,
			"componentType":5123,
			"count":181812,
			"type":"SCALAR"
		},
		{
			"bufferView":4,
			"componentType":5126,
			"count":1625,
			"max":[
				0.06358116120100021,
				0.0531264990568161,
				0.08588384091854095
			],
			"min":[
				-0.0834963396191597,
				-0.07486796379089355,
				-0.07076123356819153
			],
			"type":"VEC3"
		},
		{
			"bufferView":5,
			"componentType":5126,
			"count":1625,
			"type":"VEC3"
		},
		{
			"bufferView":6,
			"componentType":5126,
			"count":1625,
			"type":"VEC2"
		},
		{
			"bufferView":7,
			"componentType":5123,
			"count":9216,
			"type":"SCALAR"
		},
		{
			"bufferView":8,
			"componentType":5126,
			"count":27880,
			"max":[
				0.06541255861520767,
				0.05536264181137085,
				0.0876028835773468
			],
			"min":[
				-0.0845758393406868,
				-0.0713316798210144,
				-0.07257255911827087
			],
			"type":"VEC3"
		},
		{
			"bufferView":9,
			"componentType":5126,
			"count":27880,
			"type":"VEC3"
		},
		{
			"bufferView":10,
			"componentType":5126,
			"count":27880,
			"type":"VEC2"
		},
		{
			"bufferView":11,
			"componentType":5123,
			"count":166656,
			"type":"SCALAR"
		}
	],
	"bufferViews":[
		{
			"buffer":0,
			"byteLength":611100,
			"byteOffset":0,
			"target":34962
		},
		{
			"buffer":0,
			"byteLength":611100,
			"byteOffset":611100,
			"target":34962
		},
		{
			"buffer":0,
			"byteLength":407400,
			"byteOffset":1222200,
			"target":34962
		},
		{
			"buffer":0,
			"byteLength":363624,
			"byteOffset":1629600,
			"target":34963
		},
		{
			"buffer":0,
			"byteLength":19500,
			"byteOffset":1993224,
			"target":34962
		},
		{
			"buffer":0,
			"byteLength":19500,
			"byteOffset":2012724,
			"target":34962
		},
		{
			"buffer":0,
			"byteLength":13000,
			"byteOffset":2032224,
			"target":34962
		},
		{
			"buffer":0,
			"byteLength":18432,
			"byteOffset":2045224,
			"target":34963
		},
		{
			"buffer":0,
			"byteLength":334560,
			"byteOffset":2063656,
			"target":34962
		},
		{
			"buffer":0,
			"byteLength":334560,
			"byteOffset":2398216,
			"target":34962
		},
		{
			"buffer":0,
			"byteLength":223040,
			"byteOffset":2732776,
			"target":34962
		},
		{
			"buffer":0,
			"byteLength":333312,
			"byteOffset":2955816,
			"target":34963
		}
	],
	"buffers":[
		{
			"byteLength":3289128,
			"uri":"scene.bin"
		}
	]
}
